<svg width="39" height="38" viewBox="0 0 39 38" fill="none" xmlns="http://www.w3.org/2000/svg">
<path d="M36.5 16.5H8.57499L20.775 4.30003C21.75 3.32503 21.75 1.72503 20.775 0.75003C20.5437 0.518271 20.269 0.334402 19.9666 0.208949C19.6641 0.0834952 19.3399 0.0189209 19.0125 0.0189209C18.6851 0.0189209 18.3609 0.0834952 18.0584 0.208949C17.756 0.334402 17.4813 0.518271 17.25 0.75003L0.774995 17.225C0.543236 17.4563 0.359367 17.731 0.233913 18.0335C0.10846 18.3359 0.0438843 18.6601 0.0438843 18.9875C0.0438843 19.315 0.10846 19.6392 0.233913 19.9416C0.359367 20.244 0.543236 20.5187 0.774995 20.75L17.25 37.225C17.4815 37.4565 17.7562 37.6401 18.0586 37.7653C18.361 37.8906 18.6852 37.9551 19.0125 37.9551C19.3398 37.9551 19.6639 37.8906 19.9664 37.7653C20.2688 37.6401 20.5435 37.4565 20.775 37.225C21.0064 36.9936 21.19 36.7188 21.3153 36.4164C21.4406 36.114 21.505 35.7899 21.505 35.4625C21.505 35.1352 21.4406 34.8111 21.3153 34.5087C21.19 34.2063 21.0064 33.9315 20.775 33.7L8.57499 21.5H36.5C37.875 21.5 39 20.375 39 19C39 17.625 37.875 16.5 36.5 16.5Z" fill="black"/>
</svg>
