<svg width="21" height="20" viewBox="0 0 21 20" fill="none" xmlns="http://www.w3.org/2000/svg">
<path d="M6.81944 16.0066C6.81944 16.0888 6.7249 16.1546 6.60569 16.1546C6.47004 16.1669 6.3755 16.1011 6.3755 16.0066C6.3755 15.9244 6.47004 15.8586 6.58925 15.8586C6.71257 15.8463 6.81944 15.912 6.81944 16.0066ZM5.54105 15.8216C5.51228 15.9038 5.59449 15.9984 5.71781 16.023C5.82468 16.0641 5.948 16.023 5.97266 15.9408C5.99733 15.8586 5.91923 15.7641 5.79591 15.7271C5.68903 15.6983 5.56983 15.7394 5.54105 15.8216ZM7.35793 15.7517C7.23872 15.7805 7.15651 15.8586 7.16884 15.9531C7.18117 16.0353 7.28805 16.0888 7.41136 16.06C7.53057 16.0312 7.61278 15.9531 7.60045 15.8709C7.58812 15.7928 7.47713 15.7394 7.35793 15.7517ZM10.0627 0C4.36132 0 0 4.32843 0 10.0298C0 14.5884 2.86918 18.4894 6.96742 19.8623C7.49358 19.9568 7.67855 19.6321 7.67855 19.3649C7.67855 19.1101 7.66622 17.7042 7.66622 16.841C7.66622 16.841 4.78882 17.4576 4.18456 15.6161C4.18456 15.6161 3.71596 14.4199 3.04182 14.1116C3.04182 14.1116 2.1005 13.4662 3.10759 13.4786C3.10759 13.4786 4.13113 13.5608 4.69427 14.5391C5.59449 16.1258 7.10307 15.6695 7.69088 15.3982C7.78543 14.7405 8.05261 14.2842 8.34858 14.0129C6.05076 13.7581 3.7324 13.4251 3.7324 9.47076C3.7324 8.34035 4.0448 7.77309 4.7025 7.04963C4.59562 6.78245 4.24622 5.68081 4.80937 4.25855C5.66848 3.99137 7.64567 5.36841 7.64567 5.36841C8.46778 5.13822 9.35156 5.01901 10.2271 5.01901C11.1027 5.01901 11.9864 5.13822 12.8085 5.36841C12.8085 5.36841 14.7857 3.98726 15.6448 4.25855C16.208 5.68492 15.8586 6.78245 15.7517 7.04963C16.4094 7.77721 16.8122 8.34446 16.8122 9.47076C16.8122 13.4375 14.3911 13.754 12.0933 14.0129C12.4715 14.3377 12.7921 14.9543 12.7921 15.9203C12.7921 17.3055 12.7798 19.0196 12.7798 19.3567C12.7798 19.6239 12.9689 19.9486 13.4909 19.8541C17.6015 18.4894 20.3884 14.5884 20.3884 10.0298C20.3884 4.32843 15.764 0 10.0627 0ZM3.99548 14.1774C3.94204 14.2185 3.95437 14.313 4.02425 14.3911C4.09002 14.4569 4.18456 14.4857 4.238 14.4322C4.29144 14.3911 4.27911 14.2966 4.20923 14.2185C4.14346 14.1527 4.04891 14.1239 3.99548 14.1774ZM3.55154 13.8444C3.52276 13.8978 3.56387 13.9636 3.64608 14.0047C3.71185 14.0458 3.79406 14.0335 3.82283 13.976C3.85161 13.9225 3.8105 13.8567 3.72829 13.8156C3.64608 13.791 3.58031 13.8033 3.55154 13.8444ZM4.88336 15.3078C4.81759 15.3612 4.84226 15.4845 4.9368 15.5626C5.03134 15.6572 5.15055 15.6695 5.20399 15.6037C5.25742 15.5503 5.23276 15.427 5.15055 15.3489C5.06012 15.2543 4.9368 15.242 4.88336 15.3078ZM4.41476 14.7035C4.34899 14.7446 4.34899 14.8515 4.41476 14.946C4.48053 15.0406 4.59151 15.0817 4.64495 15.0406C4.71072 14.9872 4.71072 14.8803 4.64495 14.7857C4.5874 14.6912 4.48053 14.6501 4.41476 14.7035Z" fill="black"/>
</svg>
