<svg width="21" height="21" viewBox="0 0 21 21" fill="none" xmlns="http://www.w3.org/2000/svg">
<path d="M19.1501 0.559753H1.77685C0.946024 0.559753 0.27179 1.21813 0.27179 2.02885V19.4771C0.27179 20.289 0.946024 20.9482 1.77685 20.9482H19.1501C19.9815 20.9482 20.6602 20.289 20.6602 19.4771V2.02885C20.6602 1.21813 19.9815 0.559753 19.1501 0.559753ZM6.31866 17.9335H3.29324V8.204H6.31866V17.9335ZM4.80595 6.87366C3.83665 6.87366 3.05311 6.08814 3.05311 5.11969C3.05311 4.15265 3.83665 3.36713 4.80595 3.36713C5.77299 3.36713 6.55851 4.15265 6.55851 5.11969C6.55851 6.08814 5.77299 6.87366 4.80595 6.87366ZM17.6444 17.9335H14.6238V13.2023C14.6238 12.0736 14.6018 10.6223 13.0519 10.6223C11.4781 10.6223 11.2382 11.8516 11.2382 13.1205V17.9338H8.21535V8.204H11.1165V9.53265H11.1578C11.5616 8.76808 12.5482 7.96133 14.0195 7.96133C17.0795 7.96133 17.6447 9.97582 17.6447 12.5966L17.6444 17.9335Z" fill="black"/>
</svg>
