<svg width="21" height="17" viewBox="0 0 21 17" fill="none" xmlns="http://www.w3.org/2000/svg">
<path d="M18.2927 4.12685C18.3057 4.30795 18.3057 4.4891 18.3057 4.67021C18.3057 10.1942 14.1012 16.5592 6.41669 16.5592C4.04923 16.5592 1.84998 15.8735 0 14.6834C0.336371 14.7221 0.65976 14.7351 1.00907 14.7351C2.96251 14.7351 4.76076 14.0753 6.19676 12.9498C4.35972 12.911 2.82023 11.7079 2.28981 10.0519C2.54857 10.0907 2.80728 10.1166 3.07899 10.1166C3.45414 10.1166 3.82934 10.0648 4.17861 9.97433C2.26396 9.58619 0.827925 7.90442 0.827925 5.87333V5.8216C1.38419 6.13209 2.03109 6.32614 2.71669 6.35198C1.59118 5.60163 0.853809 4.32089 0.853809 2.87196C0.853809 2.09576 1.06076 1.38423 1.42302 0.763256C3.47999 3.29888 6.57191 4.95477 10.039 5.13592C9.97429 4.82543 9.93546 4.50204 9.93546 4.17861C9.93546 1.87582 11.7984 0 14.1141 0C15.3172 0 16.4039 0.504536 17.1672 1.31956C18.1115 1.13845 19.0171 0.78914 19.8192 0.310487C19.5087 1.28077 18.849 2.0958 17.9822 2.61324C18.8231 2.52272 19.6381 2.28981 20.3884 1.96642C19.8193 2.79434 19.1078 3.53172 18.2927 4.12685Z" fill="black"/>
</svg>
