<svg width="131" height="107" viewBox="0 0 131 107" fill="none" xmlns="http://www.w3.org/2000/svg">
<path d="M117.535 26.5158C117.618 27.6795 117.618 28.8434 117.618 30.007C117.618 65.5 90.6032 106.396 41.2286 106.396C26.0172 106.396 11.8865 101.991 0 94.3437C2.16125 94.5929 4.23909 94.676 6.4835 94.676C19.0347 94.676 30.5889 90.4369 39.8155 83.2053C28.0121 82.9558 18.1205 75.2255 14.7125 64.5858C16.3751 64.835 18.0374 65.0013 19.7831 65.0013C22.1936 65.0013 24.6043 64.6687 26.8485 64.0871C14.5464 61.5933 5.31959 50.7875 5.31959 37.7374V37.405C8.89371 39.3999 13.0502 40.6467 17.4553 40.8128C10.2237 35.9916 5.4859 27.7626 5.4859 18.4529C5.4859 13.4657 6.81561 8.89396 9.14317 4.90408C22.3596 21.196 42.2259 31.8354 64.5024 32.9993C64.0869 31.0044 63.8374 28.9266 63.8374 26.8485C63.8374 12.0526 75.8071 0 90.6859 0C98.4162 0 105.398 3.24175 110.303 8.47845C116.37 7.31479 122.189 5.07039 127.343 1.99494C125.348 8.22924 121.108 13.4659 115.539 16.7906C120.942 16.209 126.179 14.7125 131 12.6346C127.343 17.9542 122.771 22.692 117.535 26.5158Z" fill="black"/>
</svg>
