<svg width="131" height="128" viewBox="0 0 131 128" fill="none" xmlns="http://www.w3.org/2000/svg">
<path d="M43.8163 102.846C43.8163 103.374 43.2089 103.796 42.4429 103.796C41.5714 103.876 40.9639 103.453 40.9639 102.846C40.9639 102.317 41.5714 101.895 42.3373 101.895C43.1296 101.816 43.8163 102.238 43.8163 102.846ZM35.6024 101.657C35.4175 102.185 35.9458 102.793 36.7381 102.951C37.4248 103.215 38.2171 102.951 38.3756 102.423C38.5341 101.895 38.0323 101.287 37.2399 101.05C36.5532 100.865 35.7873 101.129 35.6024 101.657ZM47.2762 101.208C46.5103 101.393 45.9821 101.895 46.0613 102.502C46.1405 103.03 46.8272 103.374 47.6196 103.189C48.3855 103.004 48.9137 102.502 48.8345 101.974C48.7552 101.472 48.0421 101.129 47.2762 101.208ZM64.6548 0C28.0224 0 0 27.8111 0 64.4435C0 93.7337 18.4351 118.798 44.7671 127.619C48.1478 128.227 49.3363 126.14 49.3363 124.424C49.3363 122.786 49.2571 113.753 49.2571 108.207C49.2571 108.207 30.7692 112.169 26.8867 100.336C26.8867 100.336 23.8758 92.6508 19.5444 90.67C19.5444 90.67 13.4962 86.5234 19.9669 86.6026C19.9669 86.6026 26.5433 87.1308 30.1617 93.4167C35.9458 103.611 45.6387 100.68 49.4155 98.9367C50.023 94.7109 51.7397 91.7792 53.6413 90.0361C38.8774 88.3986 23.9815 86.2593 23.9815 60.8516C23.9815 53.5885 25.9887 49.9437 30.2145 45.2954C29.5278 43.5786 27.2829 36.5004 30.9012 27.3621C36.4212 25.6454 49.125 34.4931 49.125 34.4931C54.4073 33.0141 60.0857 32.2482 65.7113 32.2482C71.3369 32.2482 77.0153 33.0141 82.2976 34.4931C82.2976 34.4931 95.0014 25.6189 100.521 27.3621C104.14 36.5268 101.895 43.5786 101.208 45.2954C105.434 49.9702 108.022 53.6149 108.022 60.8516C108.022 86.3385 92.4659 88.3722 77.702 90.0361C80.1319 92.1226 82.1919 96.0843 82.1919 102.291C82.1919 111.192 82.1127 122.205 82.1127 124.371C82.1127 126.087 83.3276 128.174 86.6819 127.567C113.093 118.798 131 93.7337 131 64.4435C131 27.8111 101.287 0 64.6548 0ZM25.6718 91.0925C25.3284 91.3566 25.4077 91.9641 25.8567 92.4659C26.2792 92.8885 26.8867 93.0734 27.23 92.73C27.5734 92.4659 27.4942 91.8585 27.0452 91.3566C26.6226 90.9341 26.0151 90.7492 25.6718 91.0925ZM22.8194 88.9532C22.6345 89.2966 22.8986 89.7192 23.4268 89.9833C23.8494 90.2474 24.3776 90.1681 24.5625 89.7984C24.7474 89.455 24.4833 89.0325 23.955 88.7683C23.4268 88.6099 23.0042 88.6891 22.8194 88.9532ZM31.3766 98.3556C30.954 98.699 31.1125 99.4913 31.72 99.9931C32.3274 100.601 33.0933 100.68 33.4367 100.257C33.78 99.9139 33.6216 99.1216 33.0933 98.6198C32.5123 98.0123 31.72 97.9331 31.3766 98.3556ZM28.3657 94.4732C27.9431 94.7373 27.9431 95.424 28.3657 96.0314C28.7883 96.6389 29.5014 96.903 29.8448 96.6389C30.2673 96.2956 30.2673 95.6089 29.8448 95.0014C29.475 94.394 28.7883 94.1298 28.3657 94.4732Z" fill="black"/>
</svg>
